<?xml version="1.0" encoding="UTF-8" standalone="no"?>
<!-- Created with Inkscape (http://www.inkscape.org/) -->

<svg
   version="1.1"
   id="svg1510"
   xml:space="preserve"
   width="359.737"
   height="296.02817"
   viewBox="0 0 359.737 296.02817"
   sodipodi:docname="pies.svg"
   inkscape:version="1.1.1 (c3084ef, 2021-09-22)"
   xmlns:inkscape="http://www.inkscape.org/namespaces/inkscape"
   xmlns:sodipodi="http://sodipodi.sourceforge.net/DTD/sodipodi-0.dtd"
   xmlns="http://www.w3.org/2000/svg"
   xmlns:svg="http://www.w3.org/2000/svg"><defs
     id="defs1514" /><sodipodi:namedview
     id="namedview1512"
     pagecolor="#ffffff"
     bordercolor="#666666"
     borderopacity="1.0"
     inkscape:pageshadow="2"
     inkscape:pageopacity="0.0"
     inkscape:pagecheckerboard="0"
     showgrid="false"
     inkscape:zoom="0.6619919"
     inkscape:cx="-129.15566"
     inkscape:cy="71.753144"
     inkscape:window-width="1680"
     inkscape:window-height="997"
     inkscape:window-x="0"
     inkscape:window-y="25"
     inkscape:window-maximized="0"
     inkscape:current-layer="g1516" /><g
     id="g1516"
     inkscape:groupmode="layer"
     inkscape:label="pie1"
     transform="matrix(1.3333333,0,0,-1.3333333,-425.8791,374.72334)"><g
       id="g2631"><g
         id="g1571"
         transform="translate(-417.24777,1.2773717)"><path
           d="m 196.02714,67.354361 c 14.23575,7.309902 26.18168,18.408826 34.5169,32.069548 8.33523,13.660721 12.74078,29.360481 12.72954,45.363331 -0.0113,16.00285 -4.43887,31.6964 -12.79328,45.34539 -8.35442,13.64899 -20.31594,24.73111 -34.56195,32.021 L 156.2976,144.72611 Z"
           style="fill:#1f77b4;fill-opacity:1;fill-rule:nonzero;stroke:none"
           id="path1518" /><path
           d="m 187.22075,222.14752 c -13.26291,6.78682 -28.04984,10.05336 -42.93752,9.48521 -14.88769,-0.56814 -29.38265,-4.95214 -42.08975,-12.73003 C 89.486382,211.1248 78.988352,200.21083 71.709829,187.21125 64.431306,174.21167 60.61355,159.55738 60.624021,144.65887 c 0.01047,-14.89852 3.848825,-29.54743 11.145615,-42.53676 7.29679,-12.989337 17.810152,-23.888541 30.528174,-31.648564 12.71802,-7.760022 27.21913,-12.123642 42.1076,-12.670858 14.88847,-0.547217 29.67078,2.740108 42.92415,9.545568 L 147.6,144.72 Z"
           style="fill:#ff7f0e;fill-opacity:1;fill-rule:nonzero;stroke:none"
           id="path1520" /><g
           id="g1522"
           transform="translate(251.97117,142.03554)"><text
             transform="scale(1,-1)"
             style="font-variant:normal;font-weight:normal;font-size:10px;font-family:DejaVuSans;-inkscape-font-specification:DejaVuSans;writing-mode:lr-tb;fill:#000000;fill-opacity:1;fill-rule:nonzero;stroke:none"
             id="text1526"><tspan
               x="0 6.3600001 12.72 15.9 22.26 25.440001"
               y="0"
               sodipodi:role="line"
               id="tspan1524">34.9 %</tspan></text></g><g
           id="g1528"
           transform="translate(16.973299,141.89494)"><text
             transform="scale(1,-1)"
             style="font-variant:normal;font-weight:normal;font-size:10px;font-family:DejaVuSans;-inkscape-font-specification:DejaVuSans;writing-mode:lr-tb;fill:#000000;fill-opacity:1;fill-rule:nonzero;stroke:none"
             id="text1532"><tspan
               x="0 6.3600001 12.72 15.9 22.26 25.440001"
               y="0"
               sodipodi:role="line"
               id="tspan1530">65.1 %</tspan></text></g></g><g
         id="g1561"
         transform="translate(-362.0996,32.102515)"><path
           d="m 45.88,216.09625 h 103.03125 c 1.33333,0 2,0.66667 2,2 V 246.44 c 0,1.33333 -0.66667,2 -2,2 H 45.88 c -1.333333,0 -2,-0.66667 -2,-2 v -28.34375 c 0,-1.33333 0.666667,-2 2,-2 z"
           style="fill:#ffffff;fill-opacity:0.8;fill-rule:nonzero;stroke:#cccccc;stroke-width:1;stroke-linecap:butt;stroke-linejoin:miter;stroke-miterlimit:10;stroke-dasharray:none;stroke-opacity:0.8"
           id="path1534" /><path
           d="m 47.88,236.84625 h 20 v 7 h -20 z"
           style="fill:#1f77b4;fill-opacity:1;fill-rule:nonzero;stroke:none"
           id="path1536" /><g
           id="g1538"
           transform="translate(75.88,236.84625)"><text
             transform="scale(1,-1)"
             style="font-variant:normal;font-weight:normal;font-size:10px;font-family:DejaVuSans;-inkscape-font-specification:DejaVuSans;writing-mode:lr-tb;fill:#000000;fill-opacity:1;fill-rule:nonzero;stroke:none"
             id="text1542"><tspan
               x="0 6.98 13.1 17.038124 21.148125 27.488125 33.838123 37.758125 43.908127"
               y="0"
               sodipodi:role="line"
               id="tspan1540">Corrupted</tspan></text></g><path
           d="m 47.88,222.17437 h 20 v 7 h -20 z"
           style="fill:#ff7f0e;fill-opacity:1;fill-rule:nonzero;stroke:none"
           id="path1544" /><g
           id="g1546"
           transform="translate(75.88,222.17437)"><text
             transform="scale(1,-1)"
             style="font-variant:normal;font-weight:normal;font-size:10px;font-family:DejaVuSans;-inkscape-font-specification:DejaVuSans;writing-mode:lr-tb;fill:#000000;fill-opacity:1;fill-rule:nonzero;stroke:none"
             id="text1550"><tspan
               x="0 7.48 13.6 17.52 20.700001 27.68 33.799999 37.738125 41.848125 48.188126 54.538124 58.458126 64.608124"
               y="0"
               sodipodi:role="line"
               id="tspan1548">Not Corrupted</tspan></text></g></g></g><rect
       style="fill:#ffffff;stroke-width:0.75"
       id="rect2155"
       width="183.537"
       height="20.393"
       x="-303.62912"
       y="-461.34052"
       transform="scale(1,-1)" /><g
       id="g2610"><g
         id="g1660"
         transform="translate(-104.37779,39.438455)"><path
           d="M 138.695,201.42437 H 249.32 c 1.33333,0 2,0.66667 2,2 V 246.44 c 0,1.33333 -0.66667,2 -2,2 H 138.695 c -1.33333,0 -2,-0.66667 -2,-2 v -43.01563 c 0,-1.33333 0.66667,-2 2,-2 z"
           style="fill:#ffffff;fill-opacity:0.8;fill-rule:nonzero;stroke:#cccccc;stroke-width:1;stroke-linecap:butt;stroke-linejoin:miter;stroke-miterlimit:10;stroke-dasharray:none;stroke-opacity:0.8"
           id="path1621" /><path
           d="m 140.695,236.84625 h 20 v 7 h -20 z"
           style="fill:#1f77b4;fill-opacity:1;fill-rule:nonzero;stroke:none"
           id="path1623" /><g
           id="g1625"
           transform="translate(168.695,236.84625)"><text
             transform="scale(1,-1)"
             style="font-variant:normal;font-weight:normal;font-size:10px;font-family:DejaVuSans;-inkscape-font-specification:DejaVuSans;writing-mode:lr-tb;fill:#000000;fill-opacity:1;fill-rule:nonzero;stroke:none"
             id="text1629"><tspan
               x="0 6.3600001 9.54 13.43125 19.581249 25.71125 32.061249 41.80125 44.581249 49.791248 52.571251 58.69125 65.03125"
               y="0"
               sodipodi:role="line"
               id="tspan1627">0 readmisions</tspan></text></g><path
           d="m 140.695,222.17437 h 20 v 7 h -20 z"
           style="fill:#ff7f0e;fill-opacity:1;fill-rule:nonzero;stroke:none"
           id="path1631" /><g
           id="g1633"
           transform="translate(168.695,222.17437)"><text
             transform="scale(1,-1)"
             style="font-variant:normal;font-weight:normal;font-size:10px;font-family:DejaVuSans;-inkscape-font-specification:DejaVuSans;writing-mode:lr-tb;fill:#000000;fill-opacity:1;fill-rule:nonzero;stroke:none"
             id="text1637"><tspan
               x="0 6.3600001 9.54 13.43125 19.581249 25.71125 32.061249 41.80125 44.581249 49.791248 55.001251 57.78125 63.901249"
               y="0"
               sodipodi:role="line"
               id="tspan1635">1 readmission</tspan></text></g><path
           d="m 140.695,207.5025 h 20 v 7 h -20 z"
           style="fill:#2ca02c;fill-opacity:1;fill-rule:nonzero;stroke:none"
           id="path1639" /><g
           id="g1641"
           transform="translate(168.695,207.5025)"><text
             transform="scale(1,-1)"
             style="font-variant:normal;font-weight:normal;font-size:10px;font-family:DejaVuSans;-inkscape-font-specification:DejaVuSans;writing-mode:lr-tb;fill:#000000;fill-opacity:1;fill-rule:nonzero;stroke:none"
             id="text1645"><tspan
               x="0 8.3800001 14.74 17.92 21.811251 27.96125 34.091251 40.44125 50.181252 52.96125 58.171249 63.381248 66.161247 72.28125"
               y="0"
               sodipodi:role="line"
               id="tspan1643">&gt;1 readmission</tspan></text></g></g><g
         id="g2469"
         transform="translate(0,-14.865144)"><g
           id="g1674"
           transform="translate(-66.405668,16.142519)"><path
             d="m 220.88949,191.55455 c -12.34539,19.31881 -31.84201,32.99374 -54.21012,38.02299 -22.3681,5.02924 -45.84178,1.01576 -65.2683,-11.15946 C 81.984557,206.24287 68.138882,186.86713 62.913337,164.54407 57.687793,142.22101 61.494922,118.71297 73.499013,99.180255 L 147.6,144.72 Z"
             style="fill:#1f77b4;fill-opacity:1;fill-rule:nonzero;stroke:none"
             id="path1597" /><path
             d="m 73.499013,99.180255 c 7.717114,-12.557069 18.500926,-22.948879 31.335017,-30.195953 12.83408,-7.247074 27.30214,-11.114335 42.04048,-11.237276 14.73834,-0.122941 29.2689,3.502426 42.22209,10.534393 12.9532,7.031968 23.90887,17.242437 31.83438,29.669022 L 147.6,144.72 Z"
             style="fill:#ff7f0e;fill-opacity:1;fill-rule:nonzero;stroke:none"
             id="path1599" /><path
             d="m 229.62858,97.954297 c 8.91706,13.981243 13.65236,30.225313 13.64501,46.808113 -0.007,16.5828 -4.75705,32.82266 -13.6865,46.796 L 156.2976,144.72386 Z"
             style="fill:#2ca02c;fill-opacity:1;fill-rule:nonzero;stroke:none"
             id="path1601" /><g
             id="g1603"
             transform="translate(61.839054,223.03008)"><text
               transform="scale(1,-1)"
               style="font-variant:normal;font-weight:normal;font-size:10px;font-family:DejaVuSans;-inkscape-font-specification:DejaVuSans;writing-mode:lr-tb;fill:#000000;fill-opacity:1;fill-rule:nonzero;stroke:none"
               id="text1607"><tspan
                 x="0 6.3600001 12.72 15.9 22.26 25.440001"
                 y="0"
                 sodipodi:role="line"
                 id="tspan1605">49.7 %</tspan></text></g><g
             id="g1609"
             transform="translate(62.34883,59.791916)"><text
               transform="scale(1,-1)"
               style="font-variant:normal;font-weight:normal;font-size:10px;font-family:DejaVuSans;-inkscape-font-specification:DejaVuSans;writing-mode:lr-tb;fill:#000000;fill-opacity:1;fill-rule:nonzero;stroke:none"
               id="text1613"><tspan
                 x="0 6.3600001 12.72 15.9 22.26 25.440001"
                 y="0"
                 sodipodi:role="line"
                 id="tspan1611">32.2 %</tspan></text></g><g
             id="g1615"
             transform="translate(251.97119,142.00845)"><text
               transform="scale(1,-1)"
               style="font-variant:normal;font-weight:normal;font-size:10px;font-family:DejaVuSans;-inkscape-font-specification:DejaVuSans;writing-mode:lr-tb;fill:#000000;fill-opacity:1;fill-rule:nonzero;stroke:none"
               id="text1619"><tspan
                 x="0 6.3600001 12.72 15.9 22.26 25.440001"
                 y="0"
                 sodipodi:role="line"
                 id="tspan1617">18.1 %</tspan></text></g></g><rect
           style="fill:none;stroke-width:0.826708"
           id="rect2157-4"
           width="269.80276"
           height="55.514278"
           x="-45.271667"
           y="-188.619"
           transform="scale(1,-1)" /></g></g><g
       id="g2654"><g
         id="g2009"
         transform="translate(291.74071,32.102515)"><path
           d="m 75.82,216.09625 h 173.5 c 1.33333,0 2,0.66667 2,2 V 246.44 c 0,1.33333 -0.66667,2 -2,2 H 75.82 c -1.333333,0 -2,-0.66667 -2,-2 v -28.34375 c 0,-1.33333 0.666667,-2 2,-2 z"
           style="fill:#ffffff;fill-opacity:0.8;fill-rule:nonzero;stroke:#cccccc;stroke-width:1;stroke-linecap:butt;stroke-linejoin:miter;stroke-miterlimit:10;stroke-dasharray:none;stroke-opacity:0.8"
           id="path1982" /><path
           d="m 77.82,236.84625 h 20 v 7 h -20 z"
           style="fill:#1f77b4;fill-opacity:1;fill-rule:nonzero;stroke:none"
           id="path1984" /><g
           id="g1986"
           transform="translate(105.82,236.84625)"><text
             transform="scale(1,-1)"
             style="font-variant:normal;font-weight:normal;font-size:10px;font-family:DejaVuSans;-inkscape-font-specification:DejaVuSans;writing-mode:lr-tb;fill:#000000;fill-opacity:1;fill-rule:nonzero;stroke:none"
             id="text1990"><tspan
               x="0 6.98 13.1 17.038124 21.148125 27.488125 33.838123 37.758125 43.908127 50.258125 53.438126 57.329376 63.479374 69.609375 75.959373 85.699371 88.479378 93.689377 98.899376 101.67937 107.79938 114.13937"
               y="0"
               sodipodi:role="line"
               id="tspan1988">Corrupted readmissions</tspan></text></g><path
           d="m 77.82,222.17437 h 20 v 7 h -20 z"
           style="fill:#ff7f0e;fill-opacity:1;fill-rule:nonzero;stroke:none"
           id="path1992" /><g
           id="g1994"
           transform="translate(105.82,222.17437)"><text
             transform="scale(1,-1)"
             style="font-variant:normal;font-weight:normal;font-size:10px;font-family:DejaVuSans;-inkscape-font-specification:DejaVuSans;writing-mode:lr-tb;fill:#000000;fill-opacity:1;fill-rule:nonzero;stroke:none"
             id="text1998"><tspan
               x="0 7.48 13.6 19.940001 23.549999 29.049999 35.169998 39.108124 43.218124 49.558125 55.908127 59.828125 65.978127 72.328125 75.508125 79.399376 85.549377 91.679375 98.029373 107.76938 110.54938 115.75938 120.96938 123.74937 129.86937 136.20938"
               y="0"
               sodipodi:role="line"
               id="tspan1996">Non-corrupted readmissions</tspan></text></g></g><g
         id="g2579"><g
           id="g2019"
           transform="translate(306.15233,1.2773722)"><path
             d="m 222.7406,188.52313 c -4.7832,8.20518 -10.87825,15.57177 -18.0427,21.80673 -7.16444,6.23496 -15.30202,11.25452 -24.08904,14.85901 -8.78702,3.6045 -18.10541,5.74549 -27.5845,6.33782 -9.4791,0.59232 -18.99152,-0.37197 -28.15891,-2.85453 -9.16739,-2.48256 -17.86654,-6.45003 -25.751447,-11.74459 C 91.2291,211.633 84.264404,205.0825 78.496951,197.5366 72.729497,189.9907 68.236786,181.55081 65.197523,172.55265 c -3.039262,-8.99816 -4.584236,-18.43369 -4.573467,-27.93127 0.01077,-9.49758 1.577136,-18.92958 4.636797,-27.92083 3.05966,-8.99124 7.571499,-17.420923 13.35605,-24.953721 5.78455,-7.532799 12.764084,-14.067497 20.660973,-19.344164 7.896884,-5.276666 16.605024,-9.224397 25.778014,-11.686163 9.17299,-2.461766 18.68758,-3.404487 28.16531,-2.790665 9.47773,0.613823 18.79123,2.77594 27.57006,6.40035 8.77882,3.62441 16.90499,8.662411 24.05528,14.913604 7.15029,6.251193 13.22862,13.63158 17.9932,21.847589 L 147.6,144.72 Z"
             style="fill:#1f77b4;fill-opacity:1;fill-rule:nonzero;stroke:none"
             id="path1966" /><path
             d="m 222.83974,101.08738 c 7.70375,13.28427 11.75361,28.37483 11.7362,43.73123 -0.0174,15.35641 -4.10148,30.43774 -11.83533,43.70451 L 147.6,144.72 Z"
             style="fill:#ff7f0e;fill-opacity:1;fill-rule:nonzero;stroke:none"
             id="path1968" /><g
             id="g1970"
             transform="translate(16.973337,141.85371)"><text
               transform="scale(1,-1)"
               style="font-variant:normal;font-weight:normal;font-size:10px;font-family:DejaVuSans;-inkscape-font-specification:DejaVuSans;writing-mode:lr-tb;fill:#000000;fill-opacity:1;fill-rule:nonzero;stroke:none"
               id="text1974"><tspan
                 x="0 6.3600001 12.72 15.9 22.26 25.440001"
                 y="0"
                 sodipodi:role="line"
                 id="tspan1972">83.2 %</tspan></text></g><g
             id="g1976"
             transform="translate(243.27354,142.07066)"><text
               transform="scale(1,-1)"
               style="font-variant:normal;font-weight:normal;font-size:10px;font-family:DejaVuSans;-inkscape-font-specification:DejaVuSans;writing-mode:lr-tb;fill:#000000;fill-opacity:1;fill-rule:nonzero;stroke:none"
               id="text1980"><tspan
                 x="0 6.3600001 12.72 15.9 22.26 25.440001"
                 y="0"
                 sodipodi:role="line"
                 id="tspan1978">16.8 %</tspan></text></g></g><rect
           style="fill:none;stroke-width:0.826708"
           id="rect2157-44"
           width="269.80276"
           height="55.514278"
           x="319.40933"
           y="-173.75452"
           transform="scale(1,-1)" /></g></g></g></svg>
